<svg width="35" height="35" viewBox="0 0 35 35" fill="none" xmlns="http://www.w3.org/2000/svg">
<path fill-rule="evenodd" clip-rule="evenodd" d="M7.10681 1.42126C5.59907 1.42126 4.15308 2.02021 3.08695 3.08634C2.02082 4.15247 1.42188 5.59846 1.42188 7.1062V27.0035C1.42188 28.5112 2.02082 29.9572 3.08695 31.0233C4.15308 32.0894 5.59907 32.6884 7.10681 32.6884H27.0041C28.5118 32.6884 29.9578 32.0894 31.0239 31.0233C32.09 29.9572 32.689 28.5112 32.689 27.0035V7.1062C32.689 5.59846 32.09 4.15247 31.0239 3.08634C29.9578 2.02021 28.5118 1.42126 27.0041 1.42126H7.10681ZM19.9633 9.78664V11.7252H26.2608V9.78664H19.9633ZM22.8697 13.1791C21.1898 13.1791 19.8425 13.84 18.9215 14.9201C18.0091 15.9903 17.5401 17.44 17.5401 18.9934C17.5401 20.4032 18.1938 21.7335 19.1688 22.7028C20.1424 23.6749 21.4712 24.323 22.8697 24.323C24.2824 24.323 25.7221 23.9066 26.9316 23.1931L25.4848 20.6704C24.6962 21.15 23.7926 21.4073 22.8697 21.4152C21.9871 21.4152 21.1699 20.7941 20.7379 19.9612H27.7147V18.5087C27.7147 15.8027 25.8784 13.1791 22.8697 13.1791ZM20.1594 17.5395H25.1593C24.8651 16.4309 24.0849 15.6009 22.8697 15.6009C21.5366 15.6009 20.5332 16.2717 20.1594 17.5395ZM11.9674 10.2713H6.39619V23.8384H12.9367C13.7905 23.8381 14.6231 23.5726 15.3193 23.0785C16.0155 22.5843 16.541 21.8861 16.8231 21.0802C17.1051 20.2744 17.1297 19.4008 16.8936 18.5804C16.6574 17.7599 16.1722 17.0331 15.5049 16.5005C15.8776 15.8754 16.078 15.1626 16.0856 14.4348C16.0933 13.7069 15.9079 12.9901 15.5485 12.3572C15.189 11.7243 14.6682 11.198 14.0392 10.8319C13.4101 10.4657 12.6953 10.2713 11.9674 10.2713ZM9.30261 21.4152V18.0241H12.4521C12.6747 18.0241 12.8952 18.068 13.1009 18.1532C13.3066 18.2384 13.4935 18.3633 13.651 18.5207C13.8084 18.6782 13.9333 18.8651 14.0185 19.0708C14.1037 19.2765 14.1476 19.497 14.1476 19.7196C14.1476 19.9423 14.1037 20.1628 14.0185 20.3685C13.9333 20.5742 13.8084 20.7611 13.651 20.9186C13.4935 21.076 13.3066 21.2009 13.1009 21.2861C12.8952 21.3713 12.6747 21.4152 12.4521 21.4152H9.30261ZM11.4842 16.0855C11.7069 16.0855 11.9273 16.0417 12.1331 15.9565C12.3388 15.8713 12.5257 15.7464 12.6831 15.5889C12.8406 15.4315 12.9655 15.2446 13.0507 15.0389C13.1359 14.8332 13.1797 14.6127 13.1797 14.39C13.1797 14.1674 13.1359 13.9469 13.0507 13.7412C12.9655 13.5355 12.8406 13.3485 12.6831 13.1911C12.5257 13.0336 12.3388 12.9088 12.1331 12.8235C11.9273 12.7383 11.7069 12.6945 11.4842 12.6945H9.30261V16.0855H11.4842Z" fill="#364D76"/>
</svg>
