<svg width="112" height="112" viewBox="0 0 112 112" fill="none" xmlns="http://www.w3.org/2000/svg">
<path d="M58.04 61.2781C58.25 57.5663 60.0762 54.2894 62.8394 51.9733C65.5467 49.6966 69.1814 48.3044 73.1723 48.3044C77.1422 48.3044 80.776 49.6957 83.4798 51.9733C86.2474 54.2894 88.0622 57.5663 88.2792 61.2781C88.4892 65.0843 86.9465 68.6368 84.2498 71.2679C81.4865 73.9367 77.5762 75.6228 73.1723 75.6228C68.7649 75.6228 64.837 73.9472 62.0913 71.2679C59.384 68.6377 57.8449 65.1044 58.061 61.2956L58.04 61.2781Z" fill="#235785"/>
<path d="M34.3396 69.126C34.3641 70.5785 34.8331 73.4048 35.5296 75.6045C37.0014 80.2735 39.4995 84.5934 42.9584 88.3786C46.5126 92.2855 50.8981 95.4268 55.9521 97.6624C61.266 99.9986 67.034 101.195 73.019 101.195C79.004 101.187 84.772 99.9698 90.085 97.6055C95.139 95.3463 99.5262 92.2085 103.079 88.2806C106.556 84.4534 109.046 80.137 110.508 75.4645C111.241 73.1437 111.709 70.7477 111.904 68.3219C112.086 65.9681 112.009 63.5925 111.674 61.2169C111.019 56.6393 109.404 52.2518 106.934 48.3421C104.682 44.7109 101.757 41.5521 98.2802 38.8808L98.2907 38.8773L63.3301 12.1845C63.2986 12.16 63.2706 12.1355 63.2391 12.1145C60.9475 10.3628 57.0756 10.3698 54.5679 12.1215C52.0181 13.8986 51.7241 16.8334 53.9939 18.6805L53.9834 18.6875L68.5801 30.486L24.1397 30.5306H24.0802C20.4079 30.5341 16.8711 32.9273 16.179 35.967C15.4615 39.0479 17.9596 41.6195 21.7895 41.6195L21.7825 41.6335L44.3015 41.5915L4.00775 72.2078C3.95875 72.2463 3.90275 72.2848 3.85375 72.3233C0.0606222 75.2055 -1.1635 80.0145 1.22525 83.0368C3.656 86.1185 8.808 86.1395 12.6414 83.0543L34.5671 65.1955C34.5671 65.1955 34.2451 67.6088 34.2731 69.0429L34.3396 69.126ZM90.8296 77.1926C86.3076 81.7671 79.9656 84.3764 73.131 84.3764C66.2789 84.3869 59.9369 81.8231 55.414 77.2521C53.2037 75.013 51.5841 72.4633 50.577 69.735C49.5924 67.0504 49.2127 64.1816 49.4649 61.3333C49.7044 58.5542 50.533 55.858 51.8956 53.4241C53.2142 51.0494 55.0369 48.8916 57.2681 47.0655C61.672 43.5148 67.2606 41.5705 73.1056 41.5705C78.976 41.5635 84.5655 43.4728 88.9694 47.027C91.2006 48.8426 93.0163 50.9899 94.3419 53.3646C95.7075 55.7983 96.5352 58.4965 96.7691 61.2773C97.0179 64.1243 96.6383 66.9913 95.657 69.6755C94.6534 72.4248 93.0303 74.9745 90.8156 77.2136L90.8296 77.1926Z" fill="#E87500"/>
</svg>
