<svg width="103" height="103" viewBox="0 0 103 103" fill="none" xmlns="http://www.w3.org/2000/svg">
<path d="M71.4204 4.68712H65.5104L71.6565 11.3566V14.5317H58.9978V10.814H65.143L58.9978 4.14447V0.966187H71.4204V4.68712ZM56.4878 4.68712H50.5778L56.7239 11.3566V14.5317H44.0644V10.814H50.2105L44.0644 4.14447V0.966187H56.4878V4.68712ZM41.7017 4.83919H35.3243V10.6587H41.7017V14.5317H30.791V0.966187H41.7017V4.83919Z" fill="#131313"/>
<path d="M22.1007 93.4081L15.6201 20.7238H86.8269L80.3407 93.396L51.1799 101.481L22.1007 93.4081Z" fill="#1572B6"/>
<path d="M51.2246 95.3015L74.7868 88.7689L80.3302 26.6671H51.2246V95.3015Z" fill="#33A9DC"/>
<path d="M51.2236 53.0013H63.0195L63.8351 43.8731H51.2236V34.9585H73.5773L73.3636 37.35L71.1729 61.9151H51.2236V53.0013Z" fill="white"/>
<path d="M51.2775 76.1529L51.2382 76.1641L41.3104 73.4829L40.6749 66.3732H31.7275L32.9769 80.3701L51.2366 85.4389L51.2783 85.4269L51.2775 76.1529Z" fill="#EBEBEB"/>
<path d="M62.2624 61.5381L61.1883 73.4765L51.2461 76.1601V85.4348L69.521 80.3701L69.6555 78.8638L71.2066 61.5381H62.2624Z" fill="white"/>
<path d="M51.255 34.9585V43.8723H29.7226L29.5433 41.8689L29.1375 37.35L28.9238 34.9585H51.255ZM51.2238 53.0021V61.9167H41.4217L41.2432 59.9133L40.8366 55.3936L40.6229 53.0021H51.2238Z" fill="#EBEBEB"/>
</svg>
