<svg width="29" height="32" viewBox="0 0 29 32" fill="none" xmlns="http://www.w3.org/2000/svg">
<path d="M21.7028 8.55633C21.4035 8.25867 20.9934 8.10825 20.5833 8.10825C20.1733 8.10825 19.7632 8.25867 19.4639 8.55633L15.8333 12.1869V1.58333C15.8333 1.16341 15.6665 0.76068 15.3696 0.463748C15.0727 0.166815 14.6699 0 14.25 0C13.8301 0 13.4273 0.166815 13.1304 0.463748C12.8335 0.76068 12.6667 1.16341 12.6667 1.58333V12.1869L9.03608 8.55633C8.88938 8.40879 8.71496 8.2917 8.52285 8.21181C8.33074 8.13191 8.12473 8.09078 7.91667 8.09078C7.7086 8.09078 7.50259 8.13191 7.31048 8.21181C7.11837 8.2917 6.94395 8.40879 6.79725 8.55633C6.50042 8.85325 6.33367 9.25591 6.33367 9.67575C6.33367 10.0956 6.50042 10.4982 6.79725 10.7952L14.25 18.2083L21.7059 10.792C22.0014 10.4948 22.1669 10.0926 22.1663 9.67351C22.1657 9.25444 21.999 8.8527 21.7028 8.55633ZM28.4794 22.1667C28.4857 21.9977 28.4648 21.8287 28.4177 21.6663L25.251 12.1663C25.146 11.8512 24.9446 11.577 24.6752 11.3827C24.4059 11.1883 24.0822 11.0836 23.75 11.0833H23.4033C23.2544 11.381 23.0707 11.666 22.8222 11.9146L20.4757 14.25H22.61L25.2494 22.1667H3.25217L5.89158 14.25H8.02592L5.67783 11.9146C5.44074 11.6705 5.24453 11.3898 5.09675 11.0833H4.75C4.41783 11.0836 4.09415 11.1883 3.82477 11.3827C3.55539 11.577 3.35397 11.8512 3.249 12.1663L0.0823334 21.6663C0.035161 21.8287 0.0143134 21.9977 0.0205834 22.1667C1.76951e-08 22.1667 0 30.0833 0 30.0833C0 30.5033 0.166815 30.906 0.463748 31.2029C0.76068 31.4999 1.16341 31.6667 1.58333 31.6667H26.9167C27.3366 31.6667 27.7393 31.4999 28.0363 31.2029C28.3332 30.906 28.5 30.5033 28.5 30.0833C28.5 30.0833 28.5 22.1667 28.4794 22.1667Z" fill="white"/>
</svg>
