<svg width="35" height="35" viewBox="0 0 35 35" fill="none" xmlns="http://www.w3.org/2000/svg">
<path d="M17.0551 2.84253C15.1887 2.84253 13.3406 3.21014 11.6163 3.92438C9.89196 4.63861 8.32521 5.68549 7.00547 7.00522C4.34014 9.67055 2.84277 13.2855 2.84277 17.0549C2.84277 23.3367 6.92171 28.6663 12.564 30.5566C13.2746 30.6703 13.502 30.2297 13.502 29.846V27.4441C9.56521 28.2968 8.72668 25.5396 8.72668 25.5396C8.07291 23.891 7.14911 23.4504 7.14911 23.4504C5.85579 22.5692 7.2486 22.5977 7.2486 22.5977C8.66983 22.6972 9.42308 24.0615 9.42308 24.0615C10.6596 26.2218 12.7488 25.5823 13.5589 25.2412C13.6868 24.3174 14.0563 23.692 14.4542 23.3367C11.2991 22.9814 7.98764 21.7591 7.98764 16.3442C7.98764 14.7667 8.52771 13.5018 9.45151 12.4927C9.30938 12.1374 8.81195 10.6593 9.59363 8.74065C9.59363 8.74065 10.7875 8.35691 13.502 10.1903C14.6248 9.87763 15.8471 9.7213 17.0551 9.7213C18.2632 9.7213 19.4854 9.87763 20.6082 10.1903C23.3227 8.35691 24.5166 8.74065 24.5166 8.74065C25.2983 10.6593 24.8008 12.1374 24.6587 12.4927C25.5825 13.5018 26.1226 14.7667 26.1226 16.3442C26.1226 21.7733 22.7969 22.9672 19.6275 23.3225C20.1392 23.7631 20.6082 24.63 20.6082 25.9518V29.846C20.6082 30.2297 20.8356 30.6845 21.5604 30.5566C27.2027 28.6521 31.2674 23.3367 31.2674 17.0549C31.2674 15.1885 30.8998 13.3404 30.1856 11.616C29.4713 9.89172 28.4245 8.32496 27.1047 7.00522C25.785 5.68549 24.2182 4.63861 22.4939 3.92438C20.7696 3.21014 18.9215 2.84253 17.0551 2.84253Z" fill="#364D76"/>
</svg>
