<svg width="73" height="103" viewBox="0 0 73 103" fill="none" xmlns="http://www.w3.org/2000/svg">
<g clip-path="url(#clip0_29_378)">
<path d="M72.2707 20.0826L65.6982 93.9699L36.1542 102.189L6.69171 93.9813L0.125977 20.0826H72.2707Z" fill="#E44D26"/>
<path d="M36.1982 95.9066L60.0713 89.2651L65.6876 26.1249H36.1982V95.9066Z" fill="#F16529"/>
<path d="M23.4213 44.2518H36.1981V35.1885H13.5508L13.7668 37.62L15.9868 62.5962H36.1981V53.5329H24.2468L23.4213 44.2518ZM25.4569 67.1281H16.3904L17.6556 81.3589L36.1566 86.5125L36.1981 86.5012V77.0715L36.1585 77.082L26.1 74.3565L25.4569 67.1281Z" fill="#EBEBEB"/>
<path d="M6.83789 0H11.4277V4.55055H15.6264V0H20.2165V13.7802H15.6267V9.16581H11.428V13.7802H6.83817L6.83789 0ZM26.252 4.56985H22.212V0H34.8853V4.56985H30.8427V13.7802H26.2529V4.56985H26.252ZM36.8965 0H41.6824L44.6263 4.84201L47.5674 0H52.3552V13.7802H47.784V6.94999L44.6263 11.8496H44.5471L41.3874 6.94999V13.7802H36.8965V0ZM54.6393 0H59.2306V9.22541H65.6852V13.7802H54.639L54.6393 0Z" fill="black"/>
<path d="M36.1673 62.5962H47.2889L46.2403 74.3508L36.167 77.0791V86.5083L54.6827 81.3589L54.8184 79.8276L56.9411 55.9666L57.1614 53.5329H36.1673V62.5962ZM36.1673 44.2297V44.2518H57.9832L58.1642 42.2148L58.5759 37.62L58.7917 35.1885H36.1673V44.2297Z" fill="white"/>
</g>
<defs>
<clipPath id="clip0_29_378">
<rect width="72.5232" height="102.269" fill="white"/>
</clipPath>
</defs>
</svg>
