<svg width="103" height="103" viewBox="0 0 103 103" fill="none" xmlns="http://www.w3.org/2000/svg">
<g opacity="0.783">
<path d="M42.9448 6.90606L7.11105 43.5396C-6.40657 57.0572 15.9095 55.9374 23.9881 61.0565C27.7474 63.4561 11.9902 66.5756 15.1896 69.855C18.3091 73.0544 34.0663 76.0139 37.1858 79.1334C40.3052 82.3328 30.8669 85.6922 33.9863 88.9716C37.0258 92.1711 44.3045 89.1316 45.5843 96.4103C46.5441 101.769 58.9419 99.1299 64.541 94.4907C67.9804 91.5312 58.542 91.5312 61.6615 88.3317C69.5001 80.4131 76.4589 84.7324 79.2584 77.4537C80.8581 73.5343 67.4205 70.7348 71.0198 68.2553C79.5783 62.2563 110.773 59.2169 96.3754 44.8194L59.3419 6.90606C54.7027 2.58682 47.184 2.58682 42.9448 6.90606ZM83.9775 77.4537C83.9775 79.2933 98.1351 80.3332 97.3352 77.0537C96.2154 71.4547 85.4973 71.9346 83.9775 77.4537ZM23.6681 87.132C26.8676 89.9315 31.7467 86.4921 33.2665 82.6527C30.147 78.4935 18.629 82.8127 23.6681 87.132ZM82.2178 81.293C78.2186 84.9723 82.9377 88.7317 86.857 86.2521C87.8969 85.5322 86.777 82.1728 82.2178 81.293Z" fill="black"/>
<path opacity="0.576" d="M42.9448 7.70611L7.11105 44.3397C-6.40657 57.9373 15.9095 56.8175 23.9881 61.9366C27.7474 64.3361 11.9902 67.4556 15.1896 70.735C18.3091 73.9345 34.0663 76.8939 37.1858 80.0134C40.3052 83.2128 30.8669 86.5722 33.9863 89.8517C37.0258 93.0511 44.3045 90.0116 45.5843 97.2904C46.5441 102.649 58.9419 100.01 64.541 95.3707C67.9804 92.4112 58.542 92.4112 61.6615 89.2118C69.5001 81.2932 76.4589 85.6124 79.2584 78.3337C80.8581 74.4144 67.4205 71.6149 71.0198 69.1353C79.4983 63.1364 110.773 60.0969 96.3754 45.6994L59.3419 7.70611C54.7027 3.38686 47.184 3.38686 42.9448 7.70611ZM83.9775 78.3337C83.9775 80.1734 98.1351 81.2132 97.3352 77.9338C96.2154 72.3347 85.4973 72.7347 83.9775 78.3337ZM23.6681 87.932C26.8676 90.7315 31.7467 87.2921 33.2665 83.4528C30.147 79.3735 18.629 83.6927 23.6681 87.932ZM82.2178 82.173C78.2186 85.8524 82.9377 89.6117 86.857 87.1321C87.8969 86.4123 86.777 82.9729 82.2178 82.173Z" fill="black"/>
</g>
<path d="M42.9448 6.03545L7.11105 42.669C-6.40657 56.1866 15.9095 55.0668 23.9881 60.1859C27.7474 62.5855 11.9902 65.705 15.1896 68.9844C18.3091 72.1838 34.0663 75.1433 37.1858 78.2628C40.3052 81.4622 30.8669 84.8216 33.9863 88.101C37.0258 91.3005 44.3045 88.261 45.5843 95.5397C46.5441 100.899 58.9419 98.2592 64.541 93.6201C67.9804 90.6606 58.542 90.6606 61.6615 87.4612C69.5001 79.5425 76.4589 83.8618 79.2584 76.5831C80.8581 72.6637 67.4205 69.8642 71.0198 67.3847C79.4983 61.3857 110.773 58.3463 96.3754 43.9488L59.3419 6.03545C54.7027 1.71621 47.184 1.71621 42.9448 6.03545ZM83.9775 76.5831C83.9775 78.4227 98.1351 79.4625 97.3352 76.1831C96.2154 70.6641 85.4973 71.064 83.9775 76.5831ZM23.6681 86.2614C26.8676 89.0609 31.7467 85.6215 33.2665 81.7821C30.147 77.6229 18.629 82.0221 23.6681 86.2614ZM82.2178 80.4224C78.2186 84.1017 82.9377 87.8611 86.857 85.3815C87.8969 84.6616 86.777 81.3022 82.2178 80.4224Z" fill="black"/>
<mask id="mask0_29_415" style="mask-type:luminance" maskUnits="userSpaceOnUse" x="3" y="3" width="97" height="95">
<path d="M43.125 6.85053L8.01013 42.8373C-5.30657 56.154 16.5709 55.0443 24.4975 60.0381C28.1437 62.416 12.7661 65.5074 15.8575 68.6781C18.9488 71.8487 34.3265 74.7023 37.4178 77.7937C40.5092 80.9643 31.2351 84.2935 34.2472 87.3848C37.2593 90.5555 44.3932 87.5434 45.6615 94.6773C46.6127 99.9882 58.8197 97.2931 64.2098 92.7749L61.4355 86.7507C69.1243 78.9827 75.9411 83.263 78.7155 76.1291C80.2215 72.3243 67.1426 69.55 70.6303 67.0927C78.9532 61.227 109.629 58.2149 95.5199 44.1056L59.1367 6.85053C54.6978 2.64943 47.2468 2.64943 43.125 6.85053ZM34.6435 62.0197C35.4362 62.0197 60.8806 65.4281 51.0516 68.0439C47.3261 69.0744 30.1254 62.0197 34.6435 62.0197ZM83.3922 76.1291C83.3922 77.9522 97.2637 78.9034 96.5503 75.7327C95.4406 70.2634 84.8982 70.739 83.3922 76.1291ZM24.1804 85.641C27.351 88.336 32.107 85.0069 33.6131 81.2021C30.601 77.1595 19.2659 81.4399 24.1804 85.641ZM81.7276 79.9338C77.8435 83.5008 82.441 87.2263 86.2457 84.7691C87.1969 84.0557 86.0872 80.7265 81.7276 79.9338Z" fill="white"/>
</mask>
<g mask="url(#mask0_29_415)">
<path d="M43.125 6.85053L8.01013 42.8373C-5.30657 56.154 16.5709 55.0443 24.4975 60.0381C28.1437 62.416 12.7661 65.5074 15.8575 68.6781C18.9488 71.8487 34.3265 74.7023 37.4178 77.7937C40.5092 80.9643 31.2351 84.2935 34.2472 87.3848C37.2593 90.5555 44.3932 87.5434 45.6615 94.6773C46.6127 99.9882 58.8197 97.2931 64.2098 92.7749L61.4355 86.7507C69.1243 78.9827 75.9411 83.263 78.7155 76.1291C80.2215 72.3243 67.1426 69.55 70.6303 67.0927C78.9532 61.227 109.629 58.2149 95.5199 44.1056L59.1367 6.85053C54.6978 2.64943 47.2468 2.64943 43.125 6.85053ZM34.6435 62.0197C35.4362 62.0197 60.8806 65.4281 51.0516 68.0439C47.3261 69.0744 30.1254 62.0197 34.6435 62.0197ZM83.3922 76.1291C83.3922 77.9522 97.2637 78.9034 96.5503 75.7327C95.4406 70.2634 84.8982 70.739 83.3922 76.1291ZM24.1804 85.641C27.351 88.336 32.107 85.0069 33.6131 81.2021C30.601 77.1595 19.2659 81.4399 24.1804 85.641ZM81.7276 79.9338C77.8435 83.5008 82.441 87.2263 86.2457 84.7691C87.1969 84.0557 86.0872 80.7265 81.7276 79.9338Z" fill="url(#paint0_linear_29_415)"/>
</g>
<path opacity="0.505" d="M10.3107 44.6679C0.552439 54.2663 17.6694 51.6267 30.7871 56.7458L57.9823 8.99421C53.9031 4.75496 48.624 5.15489 44.8646 8.99421L10.3107 44.6679Z" fill="url(#paint1_linear_29_415)"/>
<path d="M57.1814 8.67508L71.3389 23.0725C72.6187 24.3523 72.6187 27.0718 71.8988 27.8717L64.8601 22.1127L63.5003 30.5112L57.6613 27.3918L48.223 33.3907L45.1036 20.8329L40.0644 31.791L27.3467 31.631C24.9471 31.631 25.267 29.1515 27.7466 26.5919C32.7057 21.1529 42.304 11.7945 45.3435 8.59509C48.5429 5.39566 53.982 5.55563 57.1814 8.67508Z" fill="url(#paint2_linear_29_415)"/>
<path opacity="0.217" d="M37.7463 76.7424C37.7463 76.7424 39.266 79.062 39.106 80.1818C38.7861 82.3414 34.1469 83.4612 35.1867 85.3809C36.2265 87.3006 39.9059 86.1808 42.9454 88.1804C45.9848 90.1801 45.185 94.1794 47.4246 95.2192C51.7438 97.2188 63.2618 91.7798 62.6219 91.9398C62.062 92.0197 51.3439 94.2594 48.9443 92.3397C46.2248 90.1001 45.4249 88.5803 43.3453 87.2206C41.4256 86.0208 38.7861 85.4609 38.1462 84.5011C37.5063 83.4612 39.426 82.1815 39.506 80.2618C39.6659 78.982 37.7463 76.7424 37.7463 76.7424Z" fill="url(#paint3_radial_29_415)"/>
<g opacity="0.276">
<path d="M37.7463 76.7424C37.7463 76.7424 39.266 79.062 39.106 80.1818C38.7861 82.3414 34.1469 83.4612 35.1867 85.3809C36.2265 87.3006 39.9059 86.1808 42.9454 88.1804C45.9848 90.1801 45.185 94.1794 47.4246 95.2192C51.7438 97.2188 63.2618 91.7798 62.6219 91.9398C43.5853 92.0197 47.1846 87.1406 39.8259 83.8612C38.7861 83.3813 39.346 82.1015 39.506 80.1818C39.6659 78.982 37.7463 76.7424 37.7463 76.7424Z" fill="url(#paint4_radial_29_415)"/>
</g>
<path opacity="0.453" d="M70.0596 66.7448C87.0966 60.5059 92.6156 59.626 98.2147 53.947C91.6558 59.4661 77.8982 62.4255 66.7002 67.3047L70.0596 66.7448Z" fill="url(#paint5_radial_29_415)"/>
<g opacity="0.512">
<path d="M70.0596 65.9447C98.1347 56.0265 93.4155 56.0265 98.2147 53.147C89.2562 56.5864 72.6192 56.9063 66.7002 66.5046L70.0596 65.9447Z" fill="url(#paint6_radial_29_415)"/>
</g>
<path opacity="0.286" d="M94.5364 73.8639C94.5364 74.5038 92.9367 74.9837 90.8571 74.9837C88.8574 74.9837 87.1777 74.5038 87.1777 73.8639C87.1777 73.2241 88.7775 72.7441 90.8571 72.7441C92.9367 72.7441 94.5364 73.2241 94.5364 73.8639Z" fill="url(#paint7_linear_29_415)"/>
<g opacity="0.621">
<path d="M95.8149 75.1437C95.8149 76.5035 93.5753 77.5433 90.9358 77.5433C88.2163 77.5433 86.0566 76.4235 86.0566 75.1437C86.0566 73.784 88.2963 72.7441 90.9358 72.7441C93.6553 72.7441 95.8149 73.8639 95.8149 75.1437Z" fill="url(#paint8_linear_29_415)"/>
</g>
<path d="M84.2188 76.5024C85.9784 78.1021 95.5767 78.902 97.1765 76.0225C94.057 78.2621 87.1782 77.4622 84.2188 76.5024Z" fill="url(#paint9_radial_29_415)"/>
<path opacity="0.286" d="M84.2179 81.8627C84.5379 82.5826 84.3779 83.3824 83.738 83.7024C83.0981 84.0223 82.2983 83.7024 81.9783 83.0625C81.6584 82.3426 81.8184 81.5427 82.4582 81.2228C83.0981 80.8229 83.898 81.1428 84.2179 81.8627Z" fill="url(#paint10_linear_29_415)"/>
<g opacity="0.621">
<path d="M84.9377 82.1826C85.4976 83.2224 85.1776 84.4222 84.2178 84.9022C83.2579 85.3821 82.1381 84.9022 81.5782 83.8623C81.0183 82.8225 81.3383 81.6227 82.2981 81.1428C83.2579 80.6629 84.3778 81.1428 84.9377 82.1826Z" fill="url(#paint11_linear_29_415)"/>
</g>
<path d="M81.8184 85.0618C83.1781 86.1816 88.4572 86.2615 86.4575 83.1421C87.0174 85.6217 83.4181 85.3817 81.8184 85.0618Z" fill="url(#paint12_radial_29_415)"/>
<path d="M17.1084 68.6651C17.1084 68.4251 35.0253 74.1041 38.0647 77.2236C35.5852 74.744 22.7874 69.145 20.8677 69.065C18.9481 68.985 17.3484 68.8251 17.1084 68.6651Z" fill="url(#paint13_radial_29_415)"/>
<path opacity="0.286" d="M30.5721 80.9661C30.7219 81.4114 29.428 82.0542 27.6 82.4556C25.772 82.857 24.2536 82.8317 24.1038 82.3863C23.9541 81.941 25.248 81.2982 27.0759 80.8968C28.9039 80.4954 30.4224 80.5207 30.5721 80.9661Z" fill="url(#paint14_linear_29_415)"/>
<g opacity="0.621">
<path d="M31.9974 81.6107C32.3156 82.5571 30.5903 83.7131 28.2702 84.2225C25.95 84.7319 23.7194 84.3848 23.4199 83.4941C23.1017 82.5477 24.827 81.3917 27.1472 80.8823C29.4673 80.3729 31.6792 80.6643 31.9974 81.6107Z" fill="url(#paint15_linear_29_415)"/>
</g>
<g opacity="0.616">
<path d="M22.8682 83.8616C22.8682 83.8616 23.828 86.4211 26.4675 86.5811C29.1871 86.7411 32.2265 83.3817 32.4665 82.1819C31.9866 83.2217 29.427 86.3412 26.1476 86.2612C24.2279 86.2612 22.8682 83.8616 22.8682 83.8616Z" fill="url(#paint16_radial_29_415)"/>
</g>
<path d="M51.0237 4.03601C48.3042 4.03601 45.6646 4.99584 43.825 6.9155L8.07126 43.5491C4.79183 46.8285 3.99197 48.9881 4.23193 50.1879C4.31192 50.8278 4.63186 51.3077 5.27175 51.8676C5.91164 52.4275 6.87147 52.9874 7.99127 53.4673C10.3109 54.4272 13.3503 55.227 16.3898 56.0269C19.4293 56.8267 22.3887 57.7066 24.6283 59.1463C24.9483 59.3863 25.2682 59.6262 25.5082 60.0262C25.7481 60.4261 25.8281 60.906 25.7481 61.3859C25.5882 62.2658 25.0283 62.7457 24.4684 63.1456C23.3486 64.0255 21.8288 64.6653 20.3091 65.3852C18.7894 66.1051 17.2696 66.905 16.4698 67.4649C16.0699 67.7848 15.9099 68.0248 15.9899 68.0248C15.9899 68.0248 15.9099 67.7848 16.0699 67.9448C16.5498 68.4247 18.0695 69.3045 19.9892 70.0244C21.9088 70.7443 24.2284 71.5441 26.548 72.264C28.8676 73.0639 31.2672 73.7837 33.2668 74.5836C35.2665 75.3835 36.9462 76.1033 37.986 77.2231C38.5459 77.783 38.9458 78.5029 39.0258 79.1428C39.1058 79.8627 38.9458 80.5026 38.6259 81.0625C38.066 82.1823 37.1861 83.0621 36.4663 83.862C35.6664 84.6618 34.9465 85.4617 34.7066 86.0216C34.5466 86.2616 34.5466 86.4215 34.5466 86.5815C34.5466 86.6615 34.5466 86.8215 34.7866 87.0614C35.8264 88.1812 38.066 88.3412 40.6255 88.9011C41.9053 89.221 43.2651 89.621 44.3849 90.6608C45.5047 91.7006 46.3845 93.1403 46.7844 95.22C46.9444 96.0998 47.4243 96.4998 48.4642 96.8197C49.584 97.1396 51.2637 97.2196 53.1033 96.9797C56.7827 96.4198 61.1819 94.6601 63.6615 92.5804L63.8215 92.4205C63.6615 92.2605 63.2616 92.0205 62.6217 91.7006C61.8218 91.3007 60.942 90.9807 60.2221 90.1009C59.9021 89.621 59.6622 88.9811 59.7422 88.2612C59.8222 87.5413 60.2221 86.9814 60.702 86.5015C64.8613 82.3422 68.8606 81.3024 71.9 80.5026C73.4198 80.1026 74.6995 79.7027 75.6594 79.1428C76.6192 78.5029 77.4191 77.7031 78.0589 76.1033C78.1389 75.9434 78.1389 75.8634 78.0589 75.7034C77.979 75.4634 77.739 75.1435 77.3391 74.8236C76.5392 74.1037 75.1795 73.3838 73.8197 72.584C72.4599 71.8641 71.1802 71.1442 70.2203 70.2644C69.7404 69.7845 69.2605 69.3045 69.1805 68.4247C69.1005 67.5448 69.6604 66.825 70.3003 66.3451C72.6999 64.6654 76.2993 63.3856 80.2186 62.0258C84.1379 60.6661 88.3771 59.2263 91.7365 57.6266C95.1759 56.0269 97.6555 54.1872 98.4554 52.3475C98.8553 51.3877 98.9353 50.5078 98.5354 49.2281C98.1354 47.9483 97.1756 46.5085 95.4159 44.8288L58.4624 6.99549C56.3828 4.99584 53.6632 4.03601 51.0237 4.03601ZM90.8567 73.5438C88.5371 73.6238 86.4575 74.6636 85.5776 76.3433C85.8176 76.4233 86.0575 76.5833 86.4575 76.6632C87.6573 76.9032 89.337 77.1432 90.9367 77.1432C92.5364 77.1432 94.2161 77.0632 95.2559 76.7432C95.6559 76.5833 95.8958 76.5033 96.0558 76.4233C95.8158 75.4635 95.3359 74.8236 94.3761 74.3436C93.4962 73.7038 92.1365 73.4638 90.8567 73.5438ZM29.6675 81.3824C27.8278 81.2224 25.5882 81.9423 24.4684 82.9021C23.9085 83.3821 23.6685 83.782 23.6685 84.0219C23.6685 84.2619 23.7485 84.6618 24.4684 85.3017C25.6682 86.3415 26.9479 86.1816 28.4677 85.3817C29.7474 84.6618 30.8672 83.3821 31.5871 82.0223C31.1072 81.7024 30.4673 81.4624 29.6675 81.3824ZM82.6181 81.9423C82.2182 82.4222 82.0582 82.9021 81.9783 83.2221C81.9783 83.702 82.0582 84.0219 82.3782 84.3419C83.0181 84.9818 84.3778 85.2217 85.8176 84.4219C85.8176 84.2619 85.7376 84.0219 85.4976 83.702C85.1777 83.0621 84.1379 82.3422 82.6181 81.9423Z" stroke="url(#paint17_radial_29_415)" stroke-width="0.390331"/>
<g opacity="0.325">
<path d="M31.3475 61.3857C29.1879 62.0256 22.2291 64.6652 23.189 66.6648C24.1488 68.5845 40.3859 69.3843 42.8655 75.1433C43.9853 77.6229 40.3859 79.5426 41.2658 82.1021C41.9856 84.1017 47.3447 89.0609 50.7841 91.4605C53.5036 93.3001 57.023 89.9407 55.5833 87.2212C53.3436 82.822 63.5019 77.4629 68.0611 74.9834C70.7006 73.5436 62.542 66.5048 62.542 66.5048L31.3475 61.3857Z" fill="url(#paint18_linear_29_415)"/>
</g>
<path d="M32.1468 63.3847C34.0664 64.8245 37.9058 63.9446 40.2254 64.9844C45.7444 67.464 52.5432 70.2635 51.2634 65.3044L49.9037 66.5042V64.2646L46.6242 65.0644C46.6242 65.0644 44.0647 63.0648 42.9449 62.3449C42.7049 62.1849 41.4251 63.4647 41.4251 63.4647L41.1852 62.1049C39.5855 61.945 37.9858 61.865 36.546 61.865C33.1866 61.945 30.947 62.4249 32.1468 63.3847Z" fill="url(#paint19_linear_29_415)"/>
<g opacity="0.478">
<path d="M68.3805 67.864C67.6607 70.5835 77.5789 74.3429 76.7791 76.2625C75.1793 80.4218 66.2209 77.6223 59.3421 86.3408C58.3823 87.6205 60.7019 92.0998 60.3819 91.5399C60.062 90.9799 57.6624 87.3006 58.3023 85.4609C60.222 79.7819 79.0987 77.6223 75.6593 74.9028C73.6596 73.383 66.5409 69.0638 68.3805 67.864Z" fill="url(#paint20_radial_29_415)"/>
</g>
<path opacity="0.586" d="M90.695 73.5429C90.695 73.7829 90.2151 74.0228 89.5752 74.0228C88.9353 74.0228 88.4554 73.7829 88.4554 73.5429C88.4554 73.3029 88.9353 73.063 89.5752 73.063C90.2151 73.063 90.695 73.3029 90.695 73.5429ZM83.4163 81.8614C83.4163 82.1014 83.0964 82.3414 82.6964 82.3414C82.2965 82.3414 81.9766 82.1014 81.9766 81.8614C81.9766 81.6215 82.2965 81.3815 82.6964 81.3815C83.0964 81.3815 83.4163 81.6215 83.4163 81.8614ZM28.466 81.4615C28.466 81.7015 27.9061 81.9414 27.2662 81.9414C26.6263 81.9414 26.0664 81.7015 26.0664 81.4615C26.0664 81.2216 26.6263 80.9816 27.2662 80.9816C27.9061 80.9816 28.466 81.2216 28.466 81.4615Z" fill="white"/>
<path opacity="0.251" d="M27.7485 61.6262C21.5096 65.4655 11.9113 66.8253 22.4695 69.3849C21.1897 66.5853 25.189 66.9053 27.7485 61.6262Z" fill="url(#paint21_linear_29_415)"/>
<g opacity="0.363">
<path d="M49.8228 96.5787C49.8228 96.5787 59.4211 95.6989 61.5807 92.8994C62.8605 91.2997 56.4616 89.38 57.8214 87.7803C63.0205 81.8613 67.4197 82.1013 73.4986 79.5417C79.5776 77.0622 77.338 75.8624 75.3383 74.7426C71.9789 72.9029 64.4602 70.9032 66.9398 66.424C69.4194 61.9448 91.2555 55.7059 91.2555 55.7059C97.8944 53.4663 97.0145 49.387 93.8151 45.9476L74.3785 26.671C74.3785 26.671 75.3383 45.0678 71.419 52.9864C66.5399 62.6647 40.7044 73.5428 51.5025 74.7426C55.3418 75.1425 57.1815 76.5023 58.7012 79.3818C61.9007 85.4607 49.8228 96.5787 49.8228 96.5787Z" fill="url(#paint22_linear_29_415)"/>
</g>
<defs>
<linearGradient id="paint0_linear_29_415" x1="82.3986" y1="30.209" x2="63.6547" y2="47.1572" gradientUnits="userSpaceOnUse">
<stop stop-color="#C0CDF9"/>
<stop offset="1" stop-color="#07092D" stop-opacity="0.288"/>
</linearGradient>
<linearGradient id="paint1_linear_29_415" x1="26.5955" y1="23.4515" x2="48.3648" y2="45.2208" gradientUnits="userSpaceOnUse">
<stop stop-color="white"/>
<stop offset="1" stop-color="white" stop-opacity="0"/>
</linearGradient>
<linearGradient id="paint2_linear_29_415" x1="41.1277" y1="19.4436" x2="67.0157" y2="45.3316" gradientUnits="userSpaceOnUse">
<stop stop-color="white"/>
<stop offset="1" stop-color="white" stop-opacity="0"/>
</linearGradient>
<radialGradient id="paint3_radial_29_415" cx="0" cy="0" r="1" gradientUnits="userSpaceOnUse" gradientTransform="translate(35.0367 94.2358) scale(21.9692 14.6904)">
<stop stop-color="white"/>
<stop offset="1" stop-color="white" stop-opacity="0"/>
</radialGradient>
<radialGradient id="paint4_radial_29_415" cx="0" cy="0" r="1" gradientUnits="userSpaceOnUse" gradientTransform="translate(46.7142 94.7623) scale(28.026 18.7548)">
<stop stop-color="white"/>
<stop offset="1" stop-color="white" stop-opacity="0"/>
</radialGradient>
<radialGradient id="paint5_radial_29_415" cx="0" cy="0" r="1" gradientUnits="userSpaceOnUse" gradientTransform="translate(82.4601 60.621) scale(15.6401 6.63067)">
<stop stop-color="white"/>
<stop offset="1" stop-color="white" stop-opacity="0"/>
</radialGradient>
<radialGradient id="paint6_radial_29_415" cx="0" cy="0" r="1" gradientUnits="userSpaceOnUse" gradientTransform="translate(85.791 62.4614) scale(15.6401 6.63067)">
<stop stop-color="white"/>
<stop offset="1" stop-color="white" stop-opacity="0"/>
</radialGradient>
<linearGradient id="paint7_linear_29_415" x1="90.8958" y1="72.1395" x2="90.953" y2="75.0219" gradientUnits="userSpaceOnUse">
<stop stop-color="white"/>
<stop offset="1" stop-color="white" stop-opacity="0"/>
</linearGradient>
<linearGradient id="paint8_linear_29_415" x1="90.9338" y1="71.7573" x2="90.9338" y2="76.1383" gradientUnits="userSpaceOnUse">
<stop stop-color="white"/>
<stop offset="1" stop-color="white" stop-opacity="0"/>
</linearGradient>
<radialGradient id="paint9_radial_29_415" cx="0" cy="0" r="1" gradientUnits="userSpaceOnUse" gradientTransform="translate(90.7172 77.0086) scale(6.43584 0.954365)">
<stop stop-color="white"/>
<stop offset="1" stop-color="white" stop-opacity="0"/>
</radialGradient>
<linearGradient id="paint10_linear_29_415" x1="82.3158" y1="81.0539" x2="83.7347" y2="83.5608" gradientUnits="userSpaceOnUse">
<stop stop-color="white"/>
<stop offset="1" stop-color="white" stop-opacity="0"/>
</linearGradient>
<linearGradient id="paint11_linear_29_415" x1="81.7733" y1="80.1452" x2="83.7606" y2="84.0483" gradientUnits="userSpaceOnUse">
<stop stop-color="white"/>
<stop offset="1" stop-color="white" stop-opacity="0"/>
</linearGradient>
<radialGradient id="paint12_radial_29_415" cx="0" cy="0" r="1" gradientTransform="matrix(2.48379 -1.26025 -0.42824 -0.844246 84.6846 85.8339)" gradientUnits="userSpaceOnUse">
<stop stop-color="white"/>
<stop offset="1" stop-color="white" stop-opacity="0"/>
</radialGradient>
<radialGradient id="paint13_radial_29_415" cx="0" cy="0" r="1" gradientUnits="userSpaceOnUse" gradientTransform="translate(27.1551 71.5636) scale(10.3886 4.22653)">
<stop stop-color="white" stop-opacity="0.33"/>
<stop offset="1" stop-color="white" stop-opacity="0"/>
</radialGradient>
<linearGradient id="paint14_linear_29_415" x1="26.8918" y1="80.4661" x2="26.9757" y2="81.9815" gradientUnits="userSpaceOnUse">
<stop stop-color="white"/>
<stop offset="1" stop-color="white" stop-opacity="0"/>
</linearGradient>
<linearGradient id="paint15_linear_29_415" x1="26.9106" y1="80.1965" x2="26.7907" y2="82.4273" gradientUnits="userSpaceOnUse">
<stop stop-color="white"/>
<stop offset="1" stop-color="white" stop-opacity="0"/>
</linearGradient>
<radialGradient id="paint16_radial_29_415" cx="0" cy="0" r="1" gradientTransform="matrix(5.67141 -1.57236 -0.590772 -2.11769 27.2648 86.538)" gradientUnits="userSpaceOnUse">
<stop stop-color="white"/>
<stop offset="1" stop-color="white" stop-opacity="0"/>
</radialGradient>
<radialGradient id="paint17_radial_29_415" cx="0" cy="0" r="1" gradientUnits="userSpaceOnUse" gradientTransform="translate(55.3652 14.161) scale(81.3742 80.0908)">
<stop stop-color="white"/>
<stop offset="1" stop-color="white" stop-opacity="0"/>
</radialGradient>
<linearGradient id="paint18_linear_29_415" x1="32.514" y1="72.7222" x2="56.9351" y2="79.1793" gradientUnits="userSpaceOnUse">
<stop stop-color="white"/>
<stop offset="1" stop-color="white" stop-opacity="0"/>
</linearGradient>
<linearGradient id="paint19_linear_29_415" x1="43.1925" y1="61.2468" x2="40.4474" y2="67.5367" gradientUnits="userSpaceOnUse">
<stop stop-color="#EEEEEC"/>
<stop offset="1" stop-color="#EEEEEC" stop-opacity="0"/>
</linearGradient>
<radialGradient id="paint20_radial_29_415" cx="0" cy="0" r="1" gradientUnits="userSpaceOnUse" gradientTransform="translate(67.7251 79.4354) scale(12.795 16.2668)">
<stop stop-color="white"/>
<stop offset="1" stop-color="white" stop-opacity="0"/>
</radialGradient>
<linearGradient id="paint21_linear_29_415" x1="22.1255" y1="64.0771" x2="25.9719" y2="67.133" gradientUnits="userSpaceOnUse">
<stop stop-color="white"/>
<stop offset="1" stop-color="white" stop-opacity="0"/>
</linearGradient>
<linearGradient id="paint22_linear_29_415" x1="74.8518" y1="78.0162" x2="63.4361" y2="47.2792" gradientUnits="userSpaceOnUse">
<stop stop-color="#729FCF"/>
<stop offset="1" stop-color="#729FCF" stop-opacity="0"/>
</linearGradient>
</defs>
</svg>
