<svg width="35" height="35" viewBox="0 0 35 35" fill="none" xmlns="http://www.w3.org/2000/svg">
<path d="M11.0859 2.84253H23.0243C27.5722 2.84253 31.2674 6.53774 31.2674 11.0857V23.024C31.2674 25.2103 30.399 27.3069 28.8531 28.8528C27.3072 30.3987 25.2105 31.2672 23.0243 31.2672H11.0859C6.53798 31.2672 2.84277 27.572 2.84277 23.024V11.0857C2.84277 8.89946 3.71125 6.80278 5.25714 5.25689C6.80303 3.711 8.8997 2.84253 11.0859 2.84253ZM10.8017 5.685C9.44471 5.685 8.14333 6.22405 7.18381 7.18357C6.22429 8.14308 5.68524 9.44447 5.68524 10.8014V23.3083C5.68524 26.1365 7.97342 28.4247 10.8017 28.4247H23.3085C24.6655 28.4247 25.9669 27.8857 26.9264 26.9262C27.8859 25.9666 28.425 24.6652 28.425 23.3083V10.8014C28.425 7.97318 26.1368 5.685 23.3085 5.685H10.8017ZM24.5166 7.81684C24.9877 7.81684 25.4396 8.00402 25.7728 8.33718C26.1059 8.67035 26.2931 9.12222 26.2931 9.59339C26.2931 10.0646 26.1059 10.5164 25.7728 10.8496C25.4396 11.1828 24.9877 11.3699 24.5166 11.3699C24.0454 11.3699 23.5935 11.1828 23.2604 10.8496C22.9272 10.5164 22.74 10.0646 22.74 9.59339C22.74 9.12222 22.9272 8.67035 23.2604 8.33718C23.5935 8.00402 24.0454 7.81684 24.5166 7.81684ZM17.0551 9.94869C18.9398 9.94869 20.7473 10.6974 22.0799 12.03C23.4126 13.3627 24.1613 15.1702 24.1613 17.0549C24.1613 18.9395 23.4126 20.747 22.0799 22.0797C20.7473 23.4123 18.9398 24.161 17.0551 24.161C15.1704 24.161 13.363 23.4123 12.0303 22.0797C10.6976 20.747 9.94894 18.9395 9.94894 17.0549C9.94894 15.1702 10.6976 13.3627 12.0303 12.03C13.363 10.6974 15.1704 9.94869 17.0551 9.94869ZM17.0551 12.7912C15.9243 12.7912 14.8398 13.2404 14.0402 14.04C13.2406 14.8396 12.7914 15.9241 12.7914 17.0549C12.7914 18.1857 13.2406 19.2702 14.0402 20.0697C14.8398 20.8693 15.9243 21.3186 17.0551 21.3186C18.1859 21.3186 19.2704 20.8693 20.07 20.0697C20.8696 19.2702 21.3188 18.1857 21.3188 17.0549C21.3188 15.9241 20.8696 14.8396 20.07 14.04C19.2704 13.2404 18.1859 12.7912 17.0551 12.7912Z" fill="#364D76"/>
</svg>
