<svg width="89" height="89" viewBox="0 0 89 89" fill="none" xmlns="http://www.w3.org/2000/svg">
<g clip-path="url(#clip0_29_404)">
<path d="M0 0H88.7881V88.7881H0V0Z" fill="#F7DF1E"/>
<path d="M23.3451 74.1976L30.1394 70.0856C31.4505 72.4097 32.6429 74.3762 35.5031 74.3762C38.2448 74.3762 39.9738 73.3038 39.9738 69.1321V40.7623H48.3174V69.2501C48.3174 77.892 43.2516 81.8257 35.8607 81.8257C29.186 81.8257 25.3116 78.3689 23.3447 74.1969M52.8494 73.3035L59.6431 69.3701C61.4317 72.2907 63.7561 74.4362 67.8681 74.4362C71.3257 74.4362 73.5301 72.7076 73.5301 70.3235C73.5301 67.4629 71.2653 66.4494 67.4509 64.7812L65.3654 63.8864C59.3455 61.3243 55.3525 58.1058 55.3525 51.3114C55.3525 45.0532 60.1203 40.285 67.5706 40.285C72.875 40.285 76.6894 42.1329 79.4307 46.9604L72.9339 51.1328C71.5032 48.5701 69.9543 47.557 67.5702 47.557C65.1265 47.557 63.5768 49.1066 63.5768 51.1328C63.5768 53.6358 65.1265 54.6496 68.7023 56.1993L70.7881 57.093C77.8807 60.133 81.8738 63.2319 81.8738 70.2045C81.8738 77.7148 75.9735 81.8268 68.0468 81.8268C60.299 81.8268 55.2925 78.1316 52.8491 73.3038" fill="black"/>
</g>
<defs>
<clipPath id="clip0_29_404">
<rect width="88.7881" height="88.7881" fill="white"/>
</clipPath>
</defs>
</svg>
