<svg width="33" height="33" viewBox="0 0 33 33" fill="none" xmlns="http://www.w3.org/2000/svg">
<path d="M30.1123 0.000123013C30.7392 -0.00489148 31.3429 0.237494 31.792 0.674928C32.2411 1.11253 32.4995 1.71011 32.5107 2.33704V30.1632C32.5023 30.792 32.2453 31.3923 31.7959 31.8322C31.3465 32.2719 30.7411 32.5159 30.1123 32.5109H2.39844C1.77054 32.5173 1.1653 32.2745 0.71582 31.8361C0.26644 31.3976 0.00912802 30.7988 0 30.171V2.34485C0.00779378 1.71629 0.264492 1.11643 0.713867 0.676881C1.1635 0.237244 1.76963 -0.00627648 2.39844 0.000123013H30.1123ZM4.8125 12.1866V27.714H9.63867V12.1866H4.8125ZM21.9209 11.8107C19.5732 11.8107 18.0004 13.098 17.3555 14.3185H17.292V12.1866H12.666V27.714H17.4834V20.0421C17.4834 18.0063 17.9046 16.0453 20.3799 16.045C22.8555 16.045 22.8877 18.3606 22.8877 20.1593V27.714H27.7139V19.1866C27.7139 15.0163 26.8078 11.8002 21.9209 11.8107ZM7.22656 4.45813C6.48505 4.45818 5.77363 4.75244 5.24902 5.27649C4.72436 5.80065 4.42942 6.5124 4.42871 7.25403C4.42826 7.80741 4.59235 8.34834 4.89941 8.80872C5.20654 9.26916 5.6431 9.62877 6.1543 9.84094C6.66546 10.053 7.22863 10.1087 7.77148 10.0011C8.31426 9.89338 8.81262 9.62658 9.2041 9.23547C9.59567 8.84427 9.86253 8.34569 9.9707 7.80286C10.0788 7.2601 10.0242 6.69702 9.8125 6.18567C9.60079 5.67435 9.24137 5.23733 8.78125 4.92981C8.32112 4.62237 7.77996 4.45813 7.22656 4.45813Z" fill="#364D76"/>
</svg>
