<svg width="102" height="69" viewBox="0 0 102 69" fill="none" xmlns="http://www.w3.org/2000/svg">
<g clip-path="url(#clip0_29_407)">
<path d="M30.0715 45.4014L33.1436 55.3545C33.8339 57.6144 34.1217 59.1919 34.0064 60.0911C35.6866 55.5978 36.8606 50.7012 37.5285 45.4014H41.2225C39.634 54.0297 37.5394 60.2995 34.9387 64.2108C32.9126 67.2249 30.6931 68.7319 28.276 68.7319C27.6316 68.7319 26.8371 68.5375 25.8944 68.1515V66.0716C26.355 66.139 26.8954 66.1751 27.5169 66.1751C28.6443 66.1749 29.5535 65.8632 30.2447 65.2403C31.0725 64.4815 31.4869 63.6286 31.4869 62.6833C31.4869 62.0379 31.1637 60.7133 30.5203 58.7095L26.2399 45.4014H30.0715ZM6.55943 39.2838L12.1864 56.4266H12.2211L17.8826 39.2838H22.5081C23.521 47.7854 24.1192 55.5641 24.3028 62.6149H20.4031C20.2657 56.024 19.8861 49.8258 19.2643 44.0204H19.2303L13.2918 62.6149H10.322L4.41941 44.0204H4.38467C3.94702 49.5958 3.67087 55.794 3.55622 62.6149H0C0.229816 54.3191 0.804948 46.5428 1.7254 39.2838H6.55943Z" fill="#00758F"/>
<path d="M69.5956 38.9377C75.6484 38.9377 78.6749 42.7989 78.6749 50.5177C78.6749 54.7121 77.7648 57.8804 75.9462 60.0208C75.6184 60.4119 75.2561 60.7498 74.8747 61.0629L79.1581 63.1776L79.1539 63.1774L77.6331 65.7998L72.0549 62.5499C71.1301 62.8233 70.1132 62.96 69.0043 62.96C66.0323 62.96 63.8123 62.0951 62.3446 60.3675C60.7335 58.4564 59.9284 55.4478 59.9284 51.3469C59.9284 47.1761 60.837 44.0198 62.6561 41.8767C64.313 39.9163 66.6266 38.9377 69.5956 38.9377ZM51.0603 38.9714C53.2236 38.9714 55.1907 39.5494 56.9625 40.7013L56.0626 42.7037C54.5465 42.0602 53.0517 41.7371 51.5776 41.7371C50.3815 41.7371 49.4599 42.0246 48.8174 42.603C48.1714 43.1763 47.7718 43.914 47.7718 44.8133C47.7718 46.1953 48.7578 47.3938 50.5784 48.4063C51.1748 48.7318 51.7692 49.0611 52.3614 49.3942L52.4973 49.4705L52.5654 49.5087L52.7014 49.585L52.7693 49.6232L52.9052 49.6997C54.2833 50.4755 55.58 51.216 55.58 51.216C57.4004 52.5063 58.3078 53.8819 58.3078 56.1477C58.3078 58.1264 57.5816 59.7507 56.134 61.0217C54.6854 62.2869 52.7393 62.9213 50.3022 62.9213C48.0228 62.9213 45.8136 62.1911 43.6738 60.7429L44.6748 58.7388C46.5163 59.6604 48.1827 60.1207 49.6791 60.1207C51.0824 60.1207 52.181 59.8079 52.9756 59.19C53.7687 58.5676 54.244 57.6996 54.244 56.599C54.244 55.2136 53.2789 54.0294 51.5085 53.036C50.9544 52.7303 50.4019 52.4216 49.851 52.11L49.7154 52.0333C49.4662 51.8928 49.2153 51.7504 48.9695 51.611L48.8362 51.5353C47.6407 50.8564 46.6071 50.2632 46.6071 50.2632C44.8373 48.9705 43.9498 47.5836 43.9498 45.2983C43.9498 43.4083 44.6117 41.8806 45.9333 40.7185C47.2582 39.5538 48.9672 38.9714 51.0603 38.9714ZM85.7884 39.2837V59.7448H93.1405V62.6148H82.0596V39.2839L85.7884 39.2837ZM97.2259 59.7536V60.2386H96.4176V62.6122H95.7996V60.2386H94.9599V59.7536H97.2259ZM98.7185 59.7536L99.4946 61.7022L100.208 59.7536H101.084V62.6122H100.501V60.4367L99.6897 62.6122H99.2697L98.4569 60.4367H98.4257V62.6122H97.8746V59.7536H98.7185ZM69.215 41.8069C65.6481 41.8069 63.8637 44.7463 63.8637 50.6212C63.8637 53.9864 64.3365 56.4267 65.2805 57.9476C66.1547 59.3552 67.5239 60.0576 69.3883 60.0576C72.9552 60.0576 74.7394 57.0954 74.7394 51.1736C74.7394 47.8555 74.2666 45.4361 73.3238 43.9144C72.4486 42.5099 71.08 41.8069 69.2152 41.8069" fill="#F29111"/>
<path d="M59.8662 1.44566C61.0494 -1.45747 65.1867 0.741074 66.7923 1.75518C67.1858 2.0089 67.6371 2.54493 68.0882 2.74306C68.7921 2.77066 69.4954 2.82567 70.2004 2.85504C71.5228 3.16534 72.7616 3.41887 73.8036 4.01148C78.6463 6.85921 81.7988 9.76116 84.7001 14.5545C85.3201 15.5698 85.6299 16.6685 86.1363 17.7671C86.8392 19.4048 87.6289 21.1239 88.4447 22.6725C88.81 23.4066 89.0925 24.223 89.5997 24.843C89.7978 25.1265 90.3602 25.2101 90.6965 25.3794C91.626 25.8599 92.7522 26.2246 93.6264 26.7884C95.259 27.8049 96.8375 29.0161 98.2725 30.2562C98.8074 30.7348 99.1718 31.4124 99.6814 31.9187V32.1742C99.2291 32.3128 98.7783 32.4547 98.3272 32.5685C97.3418 32.8212 96.4689 32.764 95.5129 33.017C94.9222 33.1881 94.1887 33.4138 93.5692 33.4712L93.6264 33.5287C93.9909 34.5687 95.9629 35.4144 96.8648 36.0364C97.9602 36.8258 98.9752 37.7831 99.7922 38.8825C100.074 39.1631 100.356 39.4184 100.637 39.6981C100.833 39.9816 100.889 40.3483 101.087 40.601V40.6866C100.867 40.6091 100.709 40.4613 100.559 40.3067L100.47 40.2135C100.381 40.1208 100.29 40.0297 100.187 39.9546C99.5659 39.5308 98.9487 39.0237 98.3272 38.6296C97.2587 37.9526 96.0194 37.5597 94.9222 36.8802C94.3019 36.4857 93.7105 36.0364 93.1192 35.5849C92.5832 35.1893 91.9928 34.4295 91.656 33.8657C91.4576 33.5542 91.4304 33.1881 91.2037 32.9627C91.2442 32.5864 91.5895 32.4746 91.938 32.3827L92.0181 32.3616C92.1384 32.3305 92.256 32.2994 92.3587 32.2581C93.8225 31.6375 95.5676 31.4124 97.8212 31.4688C97.7363 30.9038 96.3282 30.1998 95.8786 29.8615C94.9763 29.2121 94.0209 28.5345 93.0637 27.9435C92.5565 27.634 91.6825 27.408 91.1206 27.1551C90.3602 26.8448 88.6704 26.5347 88.2491 25.9437C87.5334 25.012 87.0192 23.9007 86.5201 22.7781L86.3843 22.4718L86.248 22.1656C85.6581 20.8138 84.9252 19.4044 84.3339 18.0203C84.0247 17.3451 83.8828 16.7524 83.5441 16.1048C81.4894 12.1308 78.4483 8.80364 74.7612 6.46374C73.5495 5.70238 72.1985 4.99779 70.707 4.51893C69.8618 4.26402 68.8474 4.40498 67.9469 4.20941H67.3542C66.8483 4.06708 66.426 3.53164 66.0314 3.24933C65.1597 2.65829 64.2866 2.26144 63.2441 1.83975C62.8789 1.6706 61.8358 1.27671 61.4718 1.58682C61.2463 1.6434 61.132 1.72837 61.0765 1.95429C60.8522 2.29141 61.0494 2.79925 61.189 3.11014C61.6119 4.01109 62.2027 4.54653 62.7389 5.30789C63.2159 5.98311 63.8084 6.74448 64.1466 7.47864C64.8763 9.05677 65.2161 10.8052 65.8924 12.3832C66.1431 12.9766 66.5398 13.6518 66.9048 14.187C67.2142 14.6119 67.7767 14.919 67.9469 15.4568C68.2861 16.0207 67.4391 17.8811 67.243 18.4719C66.5095 20.7838 66.6517 23.9975 67.4963 26.0014L67.5413 26.1071L67.5864 26.2141C67.8948 26.9481 68.2249 27.7384 69.0448 27.9437C69.1013 27.8877 69.0448 27.9171 69.1568 27.8877C69.3552 26.3366 69.4111 24.8428 69.9465 23.6292C70.2559 22.8704 70.8737 22.334 71.2972 21.7145C71.5795 21.8833 71.5795 22.3921 71.7477 22.7288C72.1142 23.6022 72.5077 24.5597 72.9594 25.4356C73.8866 27.2395 74.9298 28.9883 76.1119 30.5663C76.5077 31.1299 77.0694 31.7503 77.576 32.2579C77.8017 32.4545 78.0544 32.5681 78.224 32.821H78.2793V32.9062C77.4347 32.5953 76.8992 31.7227 76.2256 31.2133C74.9572 30.2558 73.4384 28.8178 72.5641 27.438C72.1985 26.6459 71.8032 25.8867 71.4091 25.0985V25.0415C71.2407 25.2667 71.2972 25.4902 71.2129 25.8309C70.8472 27.2395 71.1288 28.8464 69.8618 29.353C68.4257 29.9464 67.3544 28.3955 66.9048 27.6907C65.4683 25.3514 65.0748 21.405 66.0878 18.2194C66.3129 17.5142 66.3435 16.6685 66.7364 16.1054C66.6515 15.5964 66.2586 15.4572 66.0314 15.1453C65.6373 14.6123 65.2998 13.9913 64.9913 13.3992C64.3986 12.2428 63.9768 10.861 63.5269 9.62079C63.329 9.11433 63.2724 8.6059 63.0751 8.12645C62.7387 7.39465 62.1186 6.66049 61.6402 6.01308C60.9924 5.08256 59.1057 3.27909 59.8662 1.44566ZM69.1007 6.96863C69.1759 7.04394 69.2667 7.10978 69.3607 7.17464L69.474 7.25232C69.6251 7.3568 69.7714 7.46681 69.861 7.61664C70.0032 7.81496 70.0296 8.01073 70.1998 8.20945C70.1998 8.88703 70.0032 9.3375 69.6061 9.61823C69.6061 9.61823 69.5791 9.6478 69.5512 9.6754C69.3262 9.22375 69.1289 8.77446 68.9023 8.3232C68.6231 7.92931 68.2284 7.61683 68.001 7.16676H67.9463V7.11018C68.2861 7.02639 68.6231 6.96863 69.1007 6.96863Z" fill="#00758F"/>
</g>
<defs>
<clipPath id="clip0_29_407">
<rect width="101.012" height="68.8541" fill="white"/>
</clipPath>
</defs>
</svg>
