<svg width="89" height="89" viewBox="0 0 89 89" fill="none" xmlns="http://www.w3.org/2000/svg">
<g clip-path="url(#clip0_29_399)">
<path d="M67.9784 0H20.8097C9.31682 0 0 9.31682 0 20.8097V67.9784C0 79.4713 9.31682 88.7881 20.8097 88.7881H67.9784C79.4713 88.7881 88.7881 79.4713 88.7881 67.9784V20.8097C88.7881 9.31682 79.4713 0 67.9784 0Z" fill="#242938"/>
<path d="M41.5772 10.7919C43.2832 9.81559 45.505 9.81109 47.2093 10.7919C55.7836 15.6371 64.3607 20.4743 72.9336 25.3223C74.5463 26.2306 75.6246 28.0251 75.6083 29.8831V59.0323C75.6205 60.9672 74.4354 62.8047 72.7342 63.6923C64.188 68.5108 55.6459 73.3348 47.1011 78.1533C45.3604 79.1487 43.0939 79.072 41.4069 77.9948C38.8449 76.5097 36.2783 75.0315 33.716 73.5477C33.1923 73.2356 32.6019 72.9873 32.2322 72.4795C32.5593 72.039 33.1437 71.9842 33.6185 71.7918C34.6878 71.4515 35.6703 70.9056 36.6526 70.376C36.9012 70.2061 37.2044 70.2713 37.4426 70.4232C39.6335 71.6794 41.8054 72.9724 44.0036 74.2164C44.4725 74.4873 44.9473 74.1276 45.3482 73.9043C53.7346 69.1642 62.1313 64.4425 70.5165 59.701C70.8273 59.5515 70.999 59.2216 70.9737 58.8814C70.9796 49.2656 70.9751 39.6484 70.9768 30.0322C71.0122 29.6466 70.7888 29.2914 70.4395 29.1332C61.9232 24.337 53.4106 19.5337 44.8956 14.7364C44.7481 14.635 44.5734 14.5806 44.3944 14.5803C44.2154 14.58 44.0405 14.6338 43.8926 14.7347C35.3773 19.5337 26.8668 24.3418 18.3515 29.1374C18.0036 29.2959 17.7702 29.6452 17.8114 30.0322C17.8132 39.6484 17.8114 49.2656 17.8114 58.8828C17.7966 59.0489 17.833 59.2156 17.9159 59.3604C17.9987 59.5051 18.124 59.621 18.2748 59.6923C20.5469 60.9808 22.8221 62.2602 25.0959 63.5445C26.3771 64.2337 27.9496 64.6436 29.3612 64.1154C30.6063 63.6687 31.4793 62.3976 31.4557 61.0754C31.4675 51.5158 31.4498 41.9548 31.4644 32.3962C31.4331 31.972 31.8358 31.6214 32.2485 31.6616C33.3403 31.654 34.4335 31.6467 35.5254 31.6644C35.9811 31.654 36.2946 32.1111 36.2384 32.5384C36.2339 42.1587 36.2502 51.7791 36.2312 61.399C36.2339 63.9631 35.1806 66.753 32.809 68.0075C29.8877 69.5207 26.2765 69.1999 23.3902 67.7488C20.8916 66.5016 18.5068 65.0296 16.0527 63.6937C14.347 62.811 13.1678 60.9662 13.1799 59.0326V29.8831C13.1619 27.9866 14.2835 26.1595 15.9459 25.2644C24.4907 20.4424 33.0341 15.6163 41.5772 10.7919Z" fill="#81CD39"/>
<path d="M49.0316 30.9845C52.7583 30.7445 56.7478 30.8423 60.1013 32.6784C62.698 34.0851 64.1374 37.038 64.1832 39.9226C64.1107 40.3114 63.7038 40.5261 63.3324 40.4994C62.2513 40.498 61.1696 40.5143 60.0885 40.4921C59.6296 40.5098 59.3633 40.087 59.3057 39.6816C58.9949 38.3012 58.242 36.9343 56.9431 36.2684C54.9488 35.2702 52.6369 35.3205 50.4623 35.3413C48.8748 35.4253 47.1677 35.563 45.8227 36.4963C44.7902 37.2035 44.4767 38.631 44.845 39.7807C45.1926 40.6062 46.1453 40.8726 46.9253 41.1181C51.4164 42.2928 56.1756 42.1756 60.581 43.7214C62.405 44.3516 64.189 45.5769 64.8133 47.4866C65.6301 50.0462 65.2722 53.1052 63.451 55.1598C61.9742 56.8506 59.8235 57.7711 57.6784 58.2709C54.8247 58.9073 51.8631 58.9236 48.965 58.6409C46.24 58.3302 43.404 57.6143 41.3005 55.7577C39.5015 54.1956 38.6229 51.7616 38.71 49.4129C38.7308 49.0161 39.1258 48.7393 39.506 48.7719C40.5947 48.7633 41.6837 48.7601 42.7724 48.7737C43.2077 48.7424 43.5299 49.1184 43.5524 49.5284C43.7529 50.8432 44.2471 52.2236 45.3941 53.0029C47.6068 54.4308 50.3839 54.333 52.9178 54.3729C55.0172 54.2799 57.3739 54.2518 59.0869 52.8642C59.9907 52.0727 60.2584 50.7485 60.0143 49.6095C59.7496 48.6478 58.7435 48.1997 57.8795 47.9066C53.446 46.5044 48.6334 47.0132 44.2429 45.4271C42.4602 44.7973 40.7365 43.6063 40.0519 41.775C39.0964 39.1832 39.5341 35.9771 41.546 33.9922C43.5077 32.017 46.3392 31.2564 49.0316 30.9845Z" fill="#81CD39"/>
</g>
<defs>
<clipPath id="clip0_29_399">
<rect width="88.7881" height="88.7881" fill="white"/>
</clipPath>
</defs>
</svg>
