<svg width="89" height="89" viewBox="0 0 89 89" fill="none" xmlns="http://www.w3.org/2000/svg">
<path d="M67.9784 0H20.8097C9.31682 0 0 9.31682 0 20.8097V67.9784C0 79.4713 9.31682 88.7881 20.8097 88.7881H67.9784C79.4713 88.7881 88.7881 79.4713 88.7881 67.9784V20.8097C88.7881 9.31682 79.4713 0 67.9784 0Z" fill="#242938"/>
<path d="M44.3943 50.9674C47.968 50.9674 50.8647 48.0703 50.8647 44.4969C50.8647 40.9235 47.968 38.0265 44.3943 38.0265C40.8205 38.0265 37.9238 40.9235 37.9238 44.4969C37.9238 48.0703 40.8209 50.9674 44.3943 50.9674Z" fill="#00D8FF"/>
<path d="M44.3945 31.3406C53.0818 31.3406 61.1522 32.5871 67.2373 34.6823C74.5689 37.2061 79.0766 41.032 79.0766 44.4965C79.0766 48.1066 74.2994 52.1711 66.4261 54.7796C60.4738 56.7517 52.641 57.781 44.3945 57.781C35.9395 57.781 27.933 56.8148 21.9134 54.7577C14.2977 52.1548 9.71094 48.0379 9.71094 44.4965C9.71094 41.0601 14.0151 37.2637 21.2437 34.7437C27.3513 32.6141 35.6208 31.3406 44.3931 31.3406H44.3945Z" stroke="#00D8FF" stroke-width="5.3491"/>
<path d="M32.9426 37.9562C37.2828 30.4308 42.3941 24.0623 47.249 19.8379C53.0979 14.7475 58.6645 12.7539 61.6652 14.4843C64.7926 16.2878 65.9271 22.4572 64.2536 30.5806C62.9894 36.7219 59.9672 44.0212 55.8472 51.1652C51.6232 58.4895 46.7866 64.9426 41.998 69.1281C35.9385 74.4249 30.0803 76.3418 27.0126 74.5726C24.0357 72.8572 22.8974 67.2313 24.3257 59.7104C25.5323 53.3554 28.5605 45.5556 32.9412 37.9562H32.9426Z" stroke="#00D8FF" stroke-width="5.3491"/>
<path d="M32.9529 51.1845C28.6006 43.6673 25.6373 36.0572 24.4005 29.7414C22.9115 22.1317 23.9642 16.3136 26.9625 14.5781C30.0871 12.7691 35.9981 14.8674 42.2001 20.3743C46.8892 24.5376 51.7042 30.8003 55.836 37.9374C60.0721 45.2547 63.247 52.6682 64.4821 58.9069C66.0449 66.8021 64.78 72.8345 61.7151 74.6086C58.7413 76.3302 53.2993 74.5076 47.4965 69.514C42.5937 65.2952 37.3483 58.7765 32.9529 51.1845Z" stroke="#00D8FF" stroke-width="5.3491"/>
</svg>
