<svg width="49" height="49" viewBox="0 0 49 49" fill="none" xmlns="http://www.w3.org/2000/svg">
<g clip-path="url(#clip0_29_870)">
<path d="M44.5397 12.6512C42.9094 9.93993 40.8758 7.49276 38.5087 5.39383C35.2353 2.43337 31.1142 0.576761 26.7281 0.0865155C22.3934 -0.275252 18.0398 0.508126 14.1031 2.35821C10.7458 3.88607 7.7906 6.17786 5.4787 9.05265C3.215 11.9036 1.6087 15.2191 0.774496 18.7626C0.753708 18.8485 0.750271 18.9376 0.764386 19.0248C0.778502 19.112 0.809887 19.1955 0.856699 19.2704C0.903512 19.3453 0.96481 19.4101 1.037 19.461C1.10919 19.5119 1.19081 19.5478 1.27708 19.5668C1.44458 19.597 1.61728 19.5617 1.75947 19.4681C1.90166 19.3746 2.00246 19.2299 2.04101 19.0642C2.9 15.7339 4.50135 12.6412 6.72512 10.0176C8.89166 7.40042 11.6474 5.33365 14.7665 3.98659C18.451 2.37862 22.4862 1.74185 26.4868 2.13707C30.4379 2.63976 34.1341 4.36137 37.0612 7.06241C39.2183 9.0225 41.0819 11.2841 42.5897 13.777C44.1376 16.197 45.0757 18.9563 45.3237 21.8183C45.586 25.0101 45.2101 28.222 44.2181 31.267C43.2065 34.2858 41.3591 36.9558 38.8906 38.9666C37.2861 40.3195 35.4066 41.3073 33.3823 41.8615C30.2807 42.7512 27.0788 43.2443 23.8533 43.329C23.6968 43.3394 23.5506 43.4102 23.4455 43.5266C23.3404 43.6429 23.2848 43.7956 23.2904 43.9523C23.2903 44.0305 23.306 44.108 23.3366 44.1801C23.3671 44.2522 23.4119 44.3174 23.4682 44.3718C23.5244 44.4262 23.5911 44.4687 23.6642 44.4968C23.7373 44.5249 23.8152 44.5379 23.8935 44.5352C27.2364 44.5186 30.5648 44.0933 33.8045 43.2687C36.0016 42.7014 38.0558 41.6811 39.8355 40.2733C42.6354 38.1316 44.7688 35.2382 45.9872 31.9304C47.1431 28.6555 47.6437 25.1857 47.4547 21.7178C47.2391 18.5027 46.2382 15.3895 44.5397 12.6512Z" fill="#364D76"/>
<path d="M32.0345 31.9706C33.3996 31.38 34.541 30.3698 35.2929 29.0864C36.0448 27.8031 36.3682 26.3135 36.216 24.8339C36.1588 24.4958 36.0162 24.1779 35.8015 23.9105C35.5869 23.643 35.3074 23.435 34.9897 23.306C34.0788 23.061 33.1262 23.013 32.1953 23.1653C29.7427 23.306 26.0637 23.9292 23.0683 24.2509C22.2642 24.3514 21.5002 24.4117 20.8368 24.4519C20.6983 24.4776 20.573 24.5509 20.4829 24.6592C20.3927 24.7676 20.3434 24.904 20.3434 25.045C20.3434 25.1859 20.3927 25.3224 20.4829 25.4307C20.573 25.5391 20.6983 25.6124 20.8368 25.638L32.2154 25.2762H33.884C33.9499 26.2871 33.7038 27.294 33.1788 28.1605C32.6539 29.027 31.8755 29.7114 30.9489 30.1211C30.0438 30.7361 29.0173 31.1495 27.9386 31.3333C26.8599 31.5172 25.7543 31.4671 24.6967 31.1866C23.872 30.8394 23.111 30.357 22.4451 29.7592C21.7721 29.2008 21.2124 28.5183 20.7966 27.7489C20.7597 27.667 20.707 27.5932 20.6415 27.5318C20.5761 27.4703 20.4991 27.4223 20.4151 27.3905C20.3311 27.3588 20.2417 27.3439 20.1519 27.3468C20.0621 27.3496 19.9738 27.3701 19.892 27.4071C19.8108 27.442 19.7375 27.4927 19.6762 27.5563C19.6149 27.62 19.5669 27.6952 19.5351 27.7775C19.5033 27.8599 19.4882 27.9479 19.4908 28.0361C19.4934 28.1244 19.5136 28.2113 19.5502 28.2917C19.9747 29.2906 20.597 30.1933 21.3796 30.9453C22.1416 31.7113 23.0161 32.3546 23.973 32.8552C25.2981 33.3154 26.7091 33.4748 28.1034 33.3218C29.4978 33.1688 30.8407 32.7072 32.0345 31.9706ZM16.7558 22.0797C17.2041 22.2024 17.6746 22.2024 18.1229 22.0797C18.4778 21.9556 18.7963 21.7453 19.0499 21.4677C19.3035 21.1901 19.4842 20.8539 19.5759 20.4893C19.6675 20.1246 19.6672 19.7429 19.575 19.3784C19.4829 19.0139 19.3016 18.678 19.0476 18.4008C17.0373 15.908 13.0166 20.0493 15.5496 21.8586C15.9256 22.0375 16.3417 22.1139 16.7558 22.0797ZM38.5279 20.7931C38.9802 20.8735 39.4446 20.8333 39.8748 20.6725C40.2334 20.5497 40.5555 20.3391 40.8119 20.06C41.0682 19.7808 41.2507 19.442 41.3426 19.0743C41.4345 18.7066 41.433 18.3218 41.3381 17.9549C41.2433 17.5879 41.0581 17.2505 40.7996 16.9734C38.7892 14.5007 34.7685 18.642 37.3016 20.4513C37.6715 20.6765 38.0956 20.7931 38.5279 20.7931ZM19.3693 40.394C19.1636 39.9837 18.851 39.6364 18.4646 39.3888C18.8576 38.7377 19.0072 37.9685 18.8868 37.2176C18.8047 36.5065 18.5717 35.8211 18.2033 35.2073C17.9335 34.8043 17.5762 34.4676 17.1579 34.2222C17.2426 34.0308 17.2968 33.8273 17.3187 33.6191C17.4258 32.9603 17.372 32.2853 17.162 31.6518C16.952 31.0182 16.5919 30.4448 16.1125 29.9804C15.0786 29.3156 13.8622 28.9922 12.6346 29.0556C11.1274 29.0114 9.6296 29.3069 8.25207 29.9201C8.37233 28.1113 7.86851 26.316 6.82473 24.8339C5.01542 22.8235 1.71845 24.5725 1.37669 27.568C1.34442 28.7974 1.50035 30.0244 1.83907 31.2067C2.40197 33.217 2.30145 33.1165 2.80404 33.8804C2.36255 34.3626 1.99041 34.9039 1.69835 35.4887C1.49731 36.1722 1.13545 36.9764 1.45711 37.4991C1.77876 38.0218 2.06021 37.9614 2.40197 37.6197C2.74373 37.2779 2.5829 36.7351 2.68342 36.4135C2.83362 35.8376 3.1316 35.311 3.54787 34.8856C3.86952 34.4634 4.11076 34.4433 4.49273 34.0815C8.21187 30.5232 13.7805 30.1211 14.7857 31.5082C16.4945 33.8402 12.4537 34.1016 8.95569 36.2728C8.87881 36.2948 8.8075 36.333 8.74651 36.3847C8.68553 36.4365 8.63628 36.5006 8.60204 36.5729C8.5678 36.6452 8.54936 36.7239 8.54795 36.8039C8.54653 36.8839 8.56217 36.9632 8.59383 37.0367C8.61851 37.1118 8.65822 37.1811 8.71053 37.2404C8.76284 37.2997 8.82667 37.3477 8.89813 37.3816C8.96959 37.4154 9.04719 37.4344 9.1262 37.4373C9.20522 37.4402 9.284 37.427 9.35776 37.3986C10.182 37.2779 10.9057 37.2779 11.6094 37.1774C13.6197 36.8357 14.1223 35.8506 15.9517 36.1521C16.2648 36.4073 16.4799 36.763 16.5605 37.1588C16.6411 37.5545 16.5823 37.966 16.394 38.3233C15.4686 38.9551 14.4317 39.4054 13.3382 39.6501C12.5944 40.0053 11.8774 40.4074 11.1872 40.8563C11.1108 40.877 11.0395 40.9129 10.9774 40.962C10.9154 41.0111 10.864 41.0723 10.8264 41.1419C10.7888 41.2115 10.7658 41.288 10.7586 41.3668C10.7515 41.4456 10.7605 41.525 10.7851 41.6002C10.8057 41.6765 10.8417 41.7479 10.8908 41.8099C10.9399 41.8719 11.0011 41.9233 11.0707 41.9609C11.1403 41.9985 11.2168 42.0216 11.2956 42.0287C11.3743 42.0358 11.4537 42.0268 11.5289 42.0022C12.2547 41.9946 12.9795 41.9476 13.7001 41.8615C14.0151 41.8186 14.3233 41.7449 14.6249 41.6404C15.3574 41.2084 16.2248 41.065 17.0574 41.2383C17.1234 41.2507 17.1862 41.2768 17.2416 41.3149C17.297 41.353 17.3438 41.4022 17.379 41.4594C17.4396 41.6146 17.4396 41.7868 17.379 41.9419C17.273 42.453 17.0297 42.9256 16.6754 43.309C16.268 43.7727 15.8123 44.1815 15.3084 44.5353C13.9641 45.4614 12.4088 46.0351 10.7851 46.2039C9.17541 46.4408 7.5316 46.1959 6.0608 45.5002C4.98737 44.9324 4.13728 44.0185 3.64838 42.9069C3.10424 41.7299 2.78384 40.4619 2.70352 39.1677C2.70099 39.0788 2.68061 38.9913 2.64359 38.9104C2.60657 38.8295 2.55367 38.7569 2.48803 38.6969C2.42239 38.6369 2.34535 38.5907 2.26149 38.561C2.17764 38.5314 2.08868 38.5189 1.9999 38.5243C1.91009 38.5295 1.82217 38.5523 1.74119 38.5915C1.66021 38.6306 1.58776 38.6854 1.52799 38.7526C1.46822 38.8199 1.42232 38.8983 1.39291 38.9833C1.36349 39.0683 1.35115 39.1583 1.35659 39.2481C1.38197 41.0296 1.82981 42.7796 2.66331 44.3543C3.27446 45.45 4.17107 46.3607 5.25666 46.9879C7.00446 47.9509 8.9973 48.3774 10.9861 48.2142C12.9836 48.0308 14.9008 47.3387 16.5548 46.2039C17.379 45.653 18.1128 44.9735 18.726 44.1935C19.1827 43.6022 19.499 42.9148 19.6507 42.1832C19.7493 41.572 19.6507 40.9454 19.3693 40.394ZM3.66849 32.9155L3.48756 30.9051C3.48756 29.3974 3.22621 27.4272 4.23138 26.5025C4.43242 26.5025 5.13604 25.3164 6.00049 26.9448C6.47895 27.8353 6.77246 28.8144 6.86494 29.8196C6.86414 29.9211 6.88741 30.0214 6.93283 30.1123C6.97826 30.2031 7.04455 30.2819 7.12628 30.3422C5.84838 31.0173 4.68211 31.8853 3.66849 32.9155Z" fill="#364D76"/>
</g>
<defs>
<clipPath id="clip0_29_870">
<rect width="48.2483" height="48.2483" fill="white"/>
</clipPath>
</defs>
</svg>
