<svg width="118" height="118" viewBox="0 0 118 118" fill="none" xmlns="http://www.w3.org/2000/svg">
<path d="M59.0003 108.167L12.292 88.5V24.5834L59.0003 39.3334V108.167Z" fill="#DD2C00"/>
<path d="M59 108.167L105.708 88.5V24.5834L59 39.3334V108.167Z" fill="#A52005"/>
<path d="M12.292 24.5834L59.0003 9.83337L105.709 24.5834L59.0003 39.3334L12.292 24.5834Z" fill="#FF3D00"/>
<path d="M89.8223 71.8177L93.8662 40.8845L98.333 39.3333L92.3396 80.4808L87.9466 82.2926L82.8381 55.428L77.5306 86.5898L72.8966 88.4999L66.3747 50.4351L71.2594 48.7388L75.5934 77.4055L80.842 45.4103L84.7851 44.041L89.8223 71.8177ZM41.4349 76.4615C41.4349 75.665 41.3464 74.9225 41.1669 74.2367C40.9875 73.5508 40.6605 72.86 40.186 72.1692C39.7116 71.4784 39.0601 70.7508 38.2341 69.9838C37.4081 69.2192 36.351 68.3514 35.0629 67.3853C33.6567 66.343 32.3661 65.2613 31.1861 64.1428C30.011 63.0267 29.0006 61.854 28.1574 60.6249C27.3167 59.3982 26.6578 58.0953 26.1834 56.7161C25.7089 55.337 25.4729 53.862 25.4729 52.2887C25.4729 50.7325 25.7188 49.3829 26.2129 48.2349C26.707 47.0844 27.4052 46.1748 28.3074 45.5037C29.212 44.8325 30.2962 44.4269 31.5671 44.2942C32.843 44.159 34.2565 44.336 35.8151 44.8227C37.4868 45.3463 38.9987 46.1404 40.3434 47.2048C41.693 48.2718 42.8361 49.5083 43.7728 50.912C44.7118 52.3206 45.4321 53.8374 45.9361 55.4648C46.4401 57.0947 46.6908 58.7393 46.6908 60.3987L41.4373 58.6607C41.4373 57.7019 41.3243 56.7825 41.0956 55.9024C40.8695 55.0248 40.5204 54.216 40.0533 53.476C39.5862 52.7385 38.9962 52.092 38.2858 51.5389C37.5753 50.9858 36.7395 50.5555 35.7733 50.2458C34.8662 49.9533 34.082 49.8353 33.4207 49.8918C32.7619 49.9483 32.2137 50.145 31.7785 50.4867C31.3434 50.826 31.0214 51.293 30.8149 51.8855C30.6084 52.4755 30.5051 53.154 30.5051 53.921C30.5051 55.364 31.0165 56.7358 32.0416 58.0412C33.0692 59.3515 34.645 60.7748 36.7739 62.3211C38.4505 63.538 39.9107 64.7549 41.1473 65.9718C42.3887 67.1935 43.4237 68.4522 44.2521 69.7428C45.0806 71.0384 45.6976 72.3905 46.1033 73.7966C46.504 75.2053 46.708 76.7024 46.708 78.288C46.708 79.9646 46.4523 81.3806 45.941 82.5336C45.4321 83.6865 44.7069 84.5568 43.7678 85.1468C42.8312 85.7368 41.7028 86.0318 40.3803 86.0391C39.0626 86.0465 37.5999 85.749 35.9946 85.1517C34.5712 84.6231 33.1749 83.8463 31.8056 82.8285C30.4412 81.8133 29.2219 80.5988 28.1451 79.1804C27.0733 77.7668 26.2104 76.1812 25.559 74.4235C24.9075 72.6732 24.583 70.7729 24.583 68.7251L29.6005 70.5025C29.6005 71.7292 29.7627 72.8403 30.0897 73.8384C30.4166 74.8365 30.864 75.719 31.4319 76.486C32.0023 77.2555 32.6758 77.9094 33.4576 78.4527C34.2393 78.996 35.085 79.436 35.9946 79.7655C37.7916 80.4194 39.1486 80.4317 40.0607 79.7999C40.9752 79.1681 41.4349 78.052 41.4349 76.4615Z" fill="white"/>
</svg>
