<svg width="35" height="35" viewBox="0 0 35 35" fill="none" xmlns="http://www.w3.org/2000/svg">
<path d="M17.0561 2.84253C24.9056 2.84253 31.2684 9.20539 31.2684 17.0549C31.2684 24.9043 24.9056 31.2672 17.0561 31.2672C14.5444 31.2715 12.0769 30.6068 9.9073 29.3414L2.84946 31.2672L4.77096 24.2065C3.50459 22.0362 2.83937 19.5676 2.84377 17.0549C2.84377 9.20539 9.20663 2.84253 17.0561 2.84253ZM12.2125 10.3751L11.9283 10.3864C11.7445 10.3991 11.5649 10.4474 11.3996 10.5286C11.2455 10.616 11.1048 10.7251 10.9818 10.8526C10.8112 11.0132 10.7146 11.1525 10.6108 11.2875C10.0851 11.971 9.80209 12.8101 9.80639 13.6723C9.80923 14.3687 9.99115 15.0467 10.2754 15.6805C10.8567 16.9625 11.8132 18.3198 13.0752 19.5775C13.3794 19.8803 13.6778 20.1844 13.999 20.4672C15.5673 21.8478 17.436 22.8435 19.4566 23.3751L20.2638 23.4987C20.5268 23.5129 20.7897 23.493 21.054 23.4803C21.4679 23.4584 21.8719 23.3464 22.2379 23.1519C22.4239 23.0558 22.6055 22.9515 22.7822 22.8393C22.7822 22.8393 22.8424 22.7985 22.9599 22.7114C23.1518 22.5692 23.2697 22.4683 23.4289 22.302C23.5483 22.1789 23.6478 22.0358 23.7274 21.8728C23.8382 21.6412 23.9491 21.1992 23.9946 20.8311C24.0287 20.5497 24.0187 20.3962 24.0145 20.301C24.0088 20.1489 23.8823 19.9911 23.7444 19.9243L22.9173 19.5534C22.9173 19.5534 21.6808 19.0147 20.9247 18.6708C20.8455 18.6363 20.7608 18.6166 20.6746 18.6125C20.5773 18.6024 20.479 18.6132 20.3863 18.6443C20.2936 18.6755 20.2087 18.7262 20.1373 18.793C20.1302 18.7902 20.035 18.8712 19.0075 20.1162C18.9485 20.1954 18.8672 20.2553 18.7741 20.2882C18.6809 20.3211 18.5801 20.3256 18.4844 20.301C18.3918 20.2763 18.3011 20.2449 18.213 20.2072C18.0368 20.1332 17.9756 20.1048 17.8548 20.0537C17.0389 19.6982 16.2836 19.2172 15.6164 18.6282C15.4373 18.4718 15.271 18.3013 15.1005 18.1364C14.5414 17.6009 14.0541 16.9951 13.6508 16.3343L13.567 16.1993C13.5077 16.108 13.459 16.0103 13.422 15.9079C13.368 15.699 13.5087 15.5313 13.5087 15.5313C13.5087 15.5313 13.8541 15.1532 14.0147 14.9486C14.171 14.7496 14.3032 14.5563 14.3884 14.4185C14.5562 14.1484 14.6087 13.8713 14.5206 13.6567C14.1227 12.6846 13.7115 11.7177 13.287 10.756C13.2031 10.5655 12.9544 10.4291 12.7284 10.4021C12.6517 10.3926 12.575 10.385 12.4982 10.3793C12.3074 10.3684 12.116 10.3703 11.9254 10.385L12.2125 10.3751Z" fill="#364D76"/>
</svg>
